<?xml version="1.0" encoding="utf-8"?>
<!-- Generator: Adobe Illustrator 26.5.0, SVG Export Plug-In . SVG Version: 6.00 Build 0)  -->
<svg version="1.1" id="Layer_1" xmlns="http://www.w3.org/2000/svg" xmlns:xlink="http://www.w3.org/1999/xlink" x="0px" y="0px"
	 viewBox="0 0 27.8 25.3" style="enable-background:new 0 0 27.8 25.3;" xml:space="preserve">
<style type="text/css">
	.st0{fill:#008DAB;}
</style>
<path class="st0" d="M26.9,13.8c0.9,0,1.4-1.1,0.6-1.7L14.6,0.3c-0.4-0.4-1-0.4-1.4,0L0.3,12.1c-0.6,0.6-0.3,1.7,0.6,1.7h2.3v8.9
	H1.6c-0.7,0-1.3,0.5-1.3,1.3c0,0.7,0.5,1.3,1.3,1.3h24.6c0.7,0,1.3-0.5,1.3-1.3c0-0.7-0.5-1.3-1.3-1.3h-1.6v-8.9
	C24.6,13.8,26.9,13.8,26.9,13.8z M9.3,21.1c0,0.7-0.5,1.3-1.3,1.3c-0.7,0-1.3-0.5-1.3-1.3v-6.3c0-0.7,0.5-1.3,1.3-1.3
	c0.7,0,1.3,0.5,1.3,1.3V21.1z M15.2,21.1c0,0.7-0.5,1.3-1.3,1.3c-0.7,0-1.3-0.5-1.3-1.3v-6.3c0-0.7,0.5-1.3,1.3-1.3
	c0.7,0,1.3,0.5,1.3,1.3V21.1z M13.9,9.9c-0.9,0-1.6-0.7-1.6-1.6s0.7-1.6,1.6-1.6c0.9,0,1.6,0.7,1.6,1.6S14.9,9.9,13.9,9.9z
	 M21.2,21.1c0,0.7-0.5,1.3-1.3,1.3c-0.7,0-1.3-0.5-1.3-1.3v-6.3c0-0.7,0.5-1.3,1.3-1.3c0.7,0,1.3,0.5,1.3,1.3V21.1z"/>
</svg>
