<?xml version="1.0" encoding="utf-8"?>
<!-- Generator: Adobe Illustrator 26.5.0, SVG Export Plug-In . SVG Version: 6.00 Build 0)  -->
<svg version="1.1" id="Layer_1" xmlns="http://www.w3.org/2000/svg" xmlns:xlink="http://www.w3.org/1999/xlink" x="0px" y="0px"
	 viewBox="0 0 58.3 85.9" style="enable-background:new 0 0 58.3 85.9;" xml:space="preserve">
<style type="text/css">
	.st0{fill:#008DAB;}
</style>
<path class="st0" d="M37.7,73c3.3-9.1,7.9-17.8,14-25.3c4.2-5.1,6.7-11.5,6.7-18.5C58.3,12.6,44.5-0.7,27.7,0
	C12.7,0.8,0.5,13.3,0,28.4c-0.2,7.2,2.3,13.8,6.4,19c6.1,7.7,10.8,16.3,14.3,25.5c0,0,5,12.8,8.1,12.9C32,85.9,37.7,73,37.7,73z
	 M29.2,49.3C18.1,49.3,9,40.3,9,29.2s9-20.1,20.1-20.1s20.1,9,20.1,20.1S40.3,49.3,29.2,49.3z"/>
<path class="st0" d="M42.1,27.3c0.9,0,1.4-1.1,0.6-1.7L29.8,13.7c-0.4-0.4-1-0.4-1.4,0L15.5,25.6c-0.6,0.6-0.3,1.7,0.6,1.7h2.3v8.9
	h-1.6c-0.7,0-1.3,0.5-1.3,1.3c0,0.7,0.5,1.3,1.3,1.3h24.6c0.7,0,1.3-0.5,1.3-1.3c0-0.7-0.5-1.3-1.3-1.3h-1.6v-8.9
	C39.8,27.3,42.1,27.3,42.1,27.3z M24.5,34.6c0,0.7-0.5,1.3-1.3,1.3c-0.7,0-1.3-0.5-1.3-1.3v-6.3c0-0.7,0.5-1.3,1.3-1.3
	c0.7,0,1.3,0.5,1.3,1.3V34.6z M30.4,34.6c0,0.7-0.5,1.3-1.3,1.3c-0.7,0-1.3-0.5-1.3-1.3v-6.3c0-0.7,0.5-1.3,1.3-1.3
	c0.7,0,1.3,0.5,1.3,1.3V34.6z M29.2,23.4c-0.9,0-1.6-0.7-1.6-1.6s0.7-1.6,1.6-1.6s1.6,0.7,1.6,1.6S30.1,23.4,29.2,23.4z M36.4,34.6
	c0,0.7-0.5,1.3-1.3,1.3c-0.7,0-1.3-0.5-1.3-1.3v-6.3c0-0.7,0.5-1.3,1.3-1.3c0.7,0,1.3,0.5,1.3,1.3V34.6z"/>
</svg>
